<mxfile host="65bd71144e">
    <diagram id="dQIwK9yyl47pyjbN_P-q" name="第 1 页">
        <mxGraphModel dx="2502" dy="1160" grid="1" gridSize="10" guides="1" tooltips="1" connect="1" arrows="1" fold="0" page="1" pageScale="1" pageWidth="827" pageHeight="1169" math="0" shadow="0">
            <root>
                <mxCell id="0"/>
                <mxCell id="1" parent="0"/>
                <mxCell id="334" style="edgeStyle=none;html=1;exitX=0.25;exitY=0;exitDx=0;exitDy=0;entryX=0.75;entryY=0;entryDx=0;entryDy=0;fontSize=18;fontColor=#0000CC;strokeColor=#0000CC;" edge="1" parent="1" source="2" target="297">
                    <mxGeometry relative="1" as="geometry">
                        <Array as="points">
                            <mxPoint x="100" y="311"/>
                            <mxPoint x="-363" y="311"/>
                        </Array>
                    </mxGeometry>
                </mxCell>
                <mxCell id="335" value="__ptoto__" style="edgeLabel;html=1;align=center;verticalAlign=middle;resizable=0;points=[];fontSize=18;fontColor=#0000CC;" vertex="1" connectable="0" parent="334">
                    <mxGeometry x="0.1312" y="1" relative="1" as="geometry">
                        <mxPoint y="-3" as="offset"/>
                    </mxGeometry>
                </mxCell>
                <mxCell id="2" value="&lt;b style=&quot;line-height: 1.4&quot;&gt;&lt;font style=&quot;font-size: 18px&quot;&gt;Object&lt;br&gt;构造函数&lt;br&gt;&lt;/font&gt;&lt;/b&gt;" style="rounded=1;whiteSpace=wrap;html=1;fillColor=#f0a30a;fontColor=#000000;strokeColor=#BD7000;" parent="1" vertex="1">
                    <mxGeometry x="70" y="368.5" width="120" height="60" as="geometry"/>
                </mxCell>
                <mxCell id="3" value="&lt;b style=&quot;line-height: 1.4&quot;&gt;&lt;font style=&quot;font-size: 18px&quot;&gt;Object&lt;/font&gt;&lt;/b&gt;&lt;b&gt;&lt;font style=&quot;font-size: 18px&quot;&gt;.prototype&lt;br&gt;原型对象&lt;br&gt;&lt;/font&gt;&lt;/b&gt;" style="whiteSpace=wrap;html=1;fillColor=#f0a30a;strokeColor=#BD7000;fontColor=#000000;rounded=1;" parent="1" vertex="1">
                    <mxGeometry x="340" y="368.5" width="170" height="60" as="geometry"/>
                </mxCell>
                <mxCell id="6" value="prototype&amp;nbsp;" style="text;html=1;align=center;verticalAlign=middle;resizable=0;points=[];autosize=1;strokeColor=none;fillColor=none;fontSize=18;fontColor=#FF0000;labelBackgroundColor=default;" parent="1" vertex="1">
                    <mxGeometry x="-640" y="70" width="100" height="30" as="geometry"/>
                </mxCell>
                <mxCell id="7" value="线条规范" style="text;html=1;align=center;verticalAlign=middle;resizable=0;points=[];autosize=1;strokeColor=none;fillColor=none;fontSize=18;" parent="1" vertex="1">
                    <mxGeometry x="-670" y="40" width="90" height="30" as="geometry"/>
                </mxCell>
                <mxCell id="9" value="" style="endArrow=classic;html=1;fontSize=18;strokeColor=#FF0000;" parent="1" edge="1">
                    <mxGeometry width="50" height="50" relative="1" as="geometry">
                        <mxPoint x="-530" y="84.8" as="sourcePoint"/>
                        <mxPoint x="-490" y="84.8" as="targetPoint"/>
                    </mxGeometry>
                </mxCell>
                <mxCell id="10" value="constructor" style="text;html=1;align=center;verticalAlign=middle;resizable=0;points=[];autosize=1;strokeColor=none;fillColor=none;fontSize=18;fontColor=#00CC00;labelBackgroundColor=default;" parent="1" vertex="1">
                    <mxGeometry x="-640" y="100" width="100" height="30" as="geometry"/>
                </mxCell>
                <mxCell id="11" value="" style="endArrow=classic;html=1;fontSize=18;strokeColor=#00CC00;" parent="1" edge="1">
                    <mxGeometry width="50" height="50" relative="1" as="geometry">
                        <mxPoint x="-530" y="114.80000000000001" as="sourcePoint"/>
                        <mxPoint x="-490" y="114.80000000000001" as="targetPoint"/>
                    </mxGeometry>
                </mxCell>
                <mxCell id="12" value="__proto__" style="text;html=1;align=center;verticalAlign=middle;resizable=0;points=[];autosize=1;strokeColor=none;fillColor=none;fontSize=18;fontColor=#0000CC;labelBackgroundColor=default;" parent="1" vertex="1">
                    <mxGeometry x="-640" y="140" width="100" height="30" as="geometry"/>
                </mxCell>
                <mxCell id="13" value="" style="endArrow=classic;html=1;fontSize=18;strokeColor=#0000CC;" parent="1" edge="1">
                    <mxGeometry width="50" height="50" relative="1" as="geometry">
                        <mxPoint x="-530" y="154.8" as="sourcePoint"/>
                        <mxPoint x="-490" y="154.8" as="targetPoint"/>
                    </mxGeometry>
                </mxCell>
                <mxCell id="14" value="new" style="text;html=1;align=center;verticalAlign=middle;resizable=0;points=[];autosize=1;strokeColor=none;fillColor=none;fontSize=18;fontColor=#6600CC;labelBackgroundColor=default;" parent="1" vertex="1">
                    <mxGeometry x="-615" y="180" width="50" height="30" as="geometry"/>
                </mxCell>
                <mxCell id="15" value="" style="endArrow=classic;html=1;fontSize=18;strokeColor=#6600CC;" parent="1" edge="1">
                    <mxGeometry width="50" height="50" relative="1" as="geometry">
                        <mxPoint x="-530" y="194.8" as="sourcePoint"/>
                        <mxPoint x="-490" y="194.8" as="targetPoint"/>
                    </mxGeometry>
                </mxCell>
                <mxCell id="20" value="" style="endArrow=classic;html=1;fontSize=18;strokeColor=#FF0000;entryX=0;entryY=0.25;entryDx=0;entryDy=0;exitX=1;exitY=0.25;exitDx=0;exitDy=0;" parent="1" source="2" target="3" edge="1">
                    <mxGeometry width="50" height="50" relative="1" as="geometry">
                        <mxPoint x="200" y="385" as="sourcePoint"/>
                        <mxPoint x="240" y="385" as="targetPoint"/>
                    </mxGeometry>
                </mxCell>
                <mxCell id="22" value="prototype&amp;nbsp;" style="text;html=1;align=center;verticalAlign=middle;resizable=0;points=[];autosize=1;strokeColor=none;fillColor=none;fontSize=18;fontColor=#FF0000;" parent="1" vertex="1">
                    <mxGeometry x="210" y="353" width="100" height="30" as="geometry"/>
                </mxCell>
                <mxCell id="31" value="" style="endArrow=classic;html=1;fontColor=#FFFF00;exitX=0.5;exitY=0;exitDx=0;exitDy=0;entryX=0.5;entryY=1;entryDx=0;entryDy=0;fillColor=#0050ef;strokeColor=#001DBC;" edge="1" parent="1" source="65" target="3">
                    <mxGeometry relative="1" as="geometry">
                        <mxPoint x="190" y="565" as="sourcePoint"/>
                        <mxPoint x="360" y="465" as="targetPoint"/>
                    </mxGeometry>
                </mxCell>
                <mxCell id="32" value="&lt;span style=&quot;font-size: 18px&quot;&gt;__proto__&lt;/span&gt;" style="edgeLabel;resizable=0;html=1;align=center;verticalAlign=middle;fontColor=#0000FF;" connectable="0" vertex="1" parent="31">
                    <mxGeometry relative="1" as="geometry"/>
                </mxCell>
                <mxCell id="45" value="" style="endArrow=classic;html=1;fontSize=18;strokeColor=#00CC00;exitX=0;exitY=0.75;exitDx=0;exitDy=0;entryX=1;entryY=0.75;entryDx=0;entryDy=0;" edge="1" parent="1" source="3" target="2">
                    <mxGeometry width="50" height="50" relative="1" as="geometry">
                        <mxPoint x="230" y="444.99999999999994" as="sourcePoint"/>
                        <mxPoint x="270" y="444.99999999999994" as="targetPoint"/>
                    </mxGeometry>
                </mxCell>
                <mxCell id="50" value="constructor" style="text;html=1;align=center;verticalAlign=middle;resizable=0;points=[];autosize=1;strokeColor=none;fillColor=none;fontSize=18;fontColor=#00CC00;" vertex="1" parent="1">
                    <mxGeometry x="210" y="408" width="100" height="30" as="geometry"/>
                </mxCell>
                <mxCell id="332" style="edgeStyle=none;html=1;exitX=0;exitY=0.5;exitDx=0;exitDy=0;entryX=0.75;entryY=1;entryDx=0;entryDy=0;fontSize=18;fontColor=#0000CC;strokeColor=#0000CC;" edge="1" parent="1" source="64" target="297">
                    <mxGeometry relative="1" as="geometry">
                        <Array as="points">
                            <mxPoint x="-363" y="560"/>
                        </Array>
                    </mxGeometry>
                </mxCell>
                <mxCell id="336" value="__proto__" style="edgeLabel;html=1;align=center;verticalAlign=middle;resizable=0;points=[];fontSize=18;fontColor=#0000CC;" vertex="1" connectable="0" parent="332">
                    <mxGeometry x="-0.3645" y="-3" relative="1" as="geometry">
                        <mxPoint x="-4" y="3" as="offset"/>
                    </mxGeometry>
                </mxCell>
                <mxCell id="64" value="&lt;b style=&quot;line-height: 1.4&quot;&gt;&lt;font style=&quot;font-size: 18px&quot;&gt;Person&lt;br&gt;构造函数&lt;br&gt;&lt;/font&gt;&lt;/b&gt;" style="rounded=1;whiteSpace=wrap;html=1;fillColor=#f0a30a;fontColor=#000000;strokeColor=#BD7000;" vertex="1" parent="1">
                    <mxGeometry x="70" y="530" width="120" height="60" as="geometry"/>
                </mxCell>
                <mxCell id="65" value="&lt;b&gt;&lt;font style=&quot;font-size: 18px&quot;&gt;Person.prototype&lt;br&gt;实例原型&lt;/font&gt;&lt;/b&gt;&lt;b&gt;&lt;font style=&quot;font-size: 18px&quot;&gt;对象&lt;/font&gt;&lt;/b&gt;&lt;b&gt;&lt;font style=&quot;font-size: 18px&quot;&gt;&lt;br&gt;&lt;/font&gt;&lt;/b&gt;" style="whiteSpace=wrap;html=1;fillColor=#f0a30a;strokeColor=#BD7000;fontColor=#000000;rounded=1;" vertex="1" parent="1">
                    <mxGeometry x="340" y="530" width="170" height="60" as="geometry"/>
                </mxCell>
                <mxCell id="66" value="" style="endArrow=classic;html=1;fontSize=18;strokeColor=#FF0000;entryX=0;entryY=0.25;entryDx=0;entryDy=0;exitX=1;exitY=0.25;exitDx=0;exitDy=0;" edge="1" parent="1" source="64" target="65">
                    <mxGeometry width="50" height="50" relative="1" as="geometry">
                        <mxPoint x="200" y="550" as="sourcePoint"/>
                        <mxPoint x="240" y="550" as="targetPoint"/>
                    </mxGeometry>
                </mxCell>
                <mxCell id="67" value="prototype&amp;nbsp;" style="text;html=1;align=center;verticalAlign=middle;resizable=0;points=[];autosize=1;strokeColor=none;fillColor=none;fontSize=18;fontColor=#FF0000;" vertex="1" parent="1">
                    <mxGeometry x="210" y="515" width="100" height="30" as="geometry"/>
                </mxCell>
                <mxCell id="68" value="&lt;b style=&quot;line-height: 1.4&quot;&gt;&lt;font style=&quot;font-size: 18px&quot;&gt;Person的&lt;br&gt;实例对象&lt;br&gt;&lt;/font&gt;&lt;/b&gt;" style="rounded=1;whiteSpace=wrap;html=1;fillColor=#f0a30a;fontColor=#000000;strokeColor=#BD7000;" vertex="1" parent="1">
                    <mxGeometry x="365" y="674" width="120" height="60" as="geometry"/>
                </mxCell>
                <mxCell id="71" value="" style="endArrow=classic;html=1;fontColor=#FFFF00;exitX=0.5;exitY=0;exitDx=0;exitDy=0;entryX=0.5;entryY=1;entryDx=0;entryDy=0;fillColor=#0050ef;strokeColor=#001DBC;" edge="1" parent="1" source="68" target="65">
                    <mxGeometry relative="1" as="geometry">
                        <mxPoint x="260" y="630" as="sourcePoint"/>
                        <mxPoint x="360" y="630" as="targetPoint"/>
                    </mxGeometry>
                </mxCell>
                <mxCell id="72" value="&lt;span style=&quot;font-size: 18px&quot;&gt;__proto__&lt;/span&gt;" style="edgeLabel;resizable=0;html=1;align=center;verticalAlign=middle;fontColor=#0000FF;" connectable="0" vertex="1" parent="71">
                    <mxGeometry relative="1" as="geometry"/>
                </mxCell>
                <mxCell id="73" value="" style="endArrow=classic;html=1;fontSize=18;strokeColor=#00CC00;exitX=0;exitY=0.75;exitDx=0;exitDy=0;entryX=1;entryY=0.75;entryDx=0;entryDy=0;" edge="1" parent="1" source="65" target="64">
                    <mxGeometry width="50" height="50" relative="1" as="geometry">
                        <mxPoint x="230" y="610" as="sourcePoint"/>
                        <mxPoint x="270" y="610" as="targetPoint"/>
                    </mxGeometry>
                </mxCell>
                <mxCell id="74" value="constructor" style="text;html=1;align=center;verticalAlign=middle;resizable=0;points=[];autosize=1;strokeColor=none;fillColor=none;fontSize=18;fontColor=#00CC00;" vertex="1" parent="1">
                    <mxGeometry x="210" y="570" width="100" height="30" as="geometry"/>
                </mxCell>
                <mxCell id="82" value="&lt;b&gt;&lt;font style=&quot;font-size: 18px&quot;&gt;null&lt;br&gt;&lt;/font&gt;&lt;/b&gt;" style="whiteSpace=wrap;html=1;fillColor=#f0a30a;strokeColor=#BD7000;fontColor=#000000;rounded=1;" vertex="1" parent="1">
                    <mxGeometry x="610" y="270" width="60" height="60" as="geometry"/>
                </mxCell>
                <mxCell id="380" style="edgeStyle=none;html=1;exitX=0;exitY=0.5;exitDx=0;exitDy=0;entryX=1;entryY=0.5;entryDx=0;entryDy=0;fontSize=17;fontColor=#0000CC;strokeColor=#0000CC;" edge="1" parent="1" source="296" target="297">
                    <mxGeometry relative="1" as="geometry"/>
                </mxCell>
                <mxCell id="381" value="__proto__" style="edgeLabel;html=1;align=center;verticalAlign=middle;resizable=0;points=[];fontSize=17;fontColor=#0000CC;" vertex="1" connectable="0" parent="380">
                    <mxGeometry x="-0.5062" y="-4" relative="1" as="geometry">
                        <mxPoint x="-40" y="1" as="offset"/>
                    </mxGeometry>
                </mxCell>
                <mxCell id="382" style="edgeStyle=none;html=1;exitX=1;exitY=0.5;exitDx=0;exitDy=0;entryX=0.5;entryY=1;entryDx=0;entryDy=0;fontSize=17;fontColor=#6600CC;strokeColor=#6600CC;" edge="1" parent="1" source="296" target="367">
                    <mxGeometry relative="1" as="geometry"/>
                </mxCell>
                <mxCell id="296" value="&lt;b style=&quot;line-height: 1.4&quot;&gt;&lt;font style=&quot;font-size: 18px&quot;&gt;Function&lt;br&gt;&lt;/font&gt;&lt;/b&gt;" style="rounded=1;whiteSpace=wrap;html=1;fillColor=#f0a30a;fontColor=#000000;strokeColor=#BD7000;" vertex="1" parent="1">
                    <mxGeometry x="-186" y="371" width="120" height="55" as="geometry"/>
                </mxCell>
                <mxCell id="297" value="&lt;b&gt;&lt;font style=&quot;font-size: 18px&quot;&gt;Function.prototype&lt;br&gt;函数原型,是个空函数&lt;br&gt;&lt;/font&gt;&lt;/b&gt;" style="whiteSpace=wrap;html=1;fillColor=#f0a30a;strokeColor=#BD7000;fontColor=#000000;rounded=1;" vertex="1" parent="1">
                    <mxGeometry x="-491" y="368.5" width="170" height="60" as="geometry"/>
                </mxCell>
                <mxCell id="298" value="" style="endArrow=classic;html=1;fontSize=18;strokeColor=#FF0000;entryX=1;entryY=0.25;entryDx=0;entryDy=0;exitX=0;exitY=0.25;exitDx=0;exitDy=0;" edge="1" parent="1" source="296" target="297">
                    <mxGeometry width="50" height="50" relative="1" as="geometry">
                        <mxPoint x="-185.99999999999977" y="384.75" as="sourcePoint"/>
                        <mxPoint x="-250.99999999999977" y="382.9999999999999" as="targetPoint"/>
                    </mxGeometry>
                </mxCell>
                <mxCell id="299" value="prototype&amp;nbsp;" style="text;html=1;align=center;verticalAlign=middle;resizable=0;points=[];autosize=1;strokeColor=none;fillColor=none;fontSize=18;fontColor=#FF0000;" vertex="1" parent="1">
                    <mxGeometry x="-301" y="353" width="100" height="30" as="geometry"/>
                </mxCell>
                <mxCell id="305" value="" style="endArrow=classic;html=1;fontSize=18;strokeColor=#00CC00;exitX=1;exitY=0.75;exitDx=0;exitDy=0;entryX=0;entryY=0.75;entryDx=0;entryDy=0;" edge="1" parent="1" source="297" target="296">
                    <mxGeometry width="50" height="50" relative="1" as="geometry">
                        <mxPoint x="-26" y="446" as="sourcePoint"/>
                        <mxPoint x="14" y="446" as="targetPoint"/>
                    </mxGeometry>
                </mxCell>
                <mxCell id="306" value="constructor" style="text;html=1;align=center;verticalAlign=middle;resizable=0;points=[];autosize=1;strokeColor=none;fillColor=none;fontSize=18;fontColor=#00CC00;" vertex="1" parent="1">
                    <mxGeometry x="-302" y="409" width="100" height="30" as="geometry"/>
                </mxCell>
                <mxCell id="319" value="" style="endArrow=classic;html=1;fontColor=#FFFF00;exitX=1;exitY=0.5;exitDx=0;exitDy=0;entryX=0;entryY=0.5;entryDx=0;entryDy=0;strokeColor=#6600CC;" edge="1" parent="1" source="296" target="2">
                    <mxGeometry relative="1" as="geometry">
                        <mxPoint x="-165" y="300" as="sourcePoint"/>
                        <mxPoint x="-60" y="335" as="targetPoint"/>
                    </mxGeometry>
                </mxCell>
                <mxCell id="320" value="new" style="edgeLabel;resizable=0;html=1;align=center;verticalAlign=middle;labelBackgroundColor=default;fontColor=#6600CC;fontSize=17;" connectable="0" vertex="1" parent="319">
                    <mxGeometry relative="1" as="geometry"/>
                </mxCell>
                <mxCell id="323" value="" style="edgeStyle=segmentEdgeStyle;endArrow=classic;html=1;fontSize=18;fontColor=#0000CC;strokeColor=#0000CC;exitX=0.25;exitY=0;exitDx=0;exitDy=0;entryX=1;entryY=0;entryDx=0;entryDy=0;" edge="1" parent="1" source="297" target="3">
                    <mxGeometry width="50" height="50" relative="1" as="geometry">
                        <mxPoint x="-190.99999999999977" y="318" as="sourcePoint"/>
                        <mxPoint x="-276" y="316" as="targetPoint"/>
                        <Array as="points">
                            <mxPoint x="-448" y="170"/>
                            <mxPoint x="560" y="170"/>
                            <mxPoint x="560" y="369"/>
                        </Array>
                    </mxGeometry>
                </mxCell>
                <mxCell id="331" value="__ptoto__" style="edgeLabel;html=1;align=center;verticalAlign=middle;resizable=0;points=[];fontSize=18;fontColor=#0000CC;" vertex="1" connectable="0" parent="323">
                    <mxGeometry x="0.1584" y="1" relative="1" as="geometry">
                        <mxPoint x="-347" y="-3" as="offset"/>
                    </mxGeometry>
                </mxCell>
                <mxCell id="340" value="" style="endArrow=classic;html=1;fontColor=#FFFF00;exitX=1;exitY=0.5;exitDx=0;exitDy=0;entryX=0.5;entryY=0;entryDx=0;entryDy=0;strokeColor=#6600CC;" edge="1" parent="1" source="296" target="64">
                    <mxGeometry relative="1" as="geometry">
                        <mxPoint x="-175" y="480" as="sourcePoint"/>
                        <mxPoint y="480" as="targetPoint"/>
                    </mxGeometry>
                </mxCell>
                <mxCell id="341" value="new" style="edgeLabel;resizable=0;html=1;align=center;verticalAlign=middle;labelBackgroundColor=default;fontColor=#6600CC;fontSize=17;" connectable="0" vertex="1" parent="340">
                    <mxGeometry relative="1" as="geometry"/>
                </mxCell>
                <mxCell id="343" value="" style="endArrow=classic;html=1;fontColor=#FFFF00;exitX=0.5;exitY=1;exitDx=0;exitDy=0;entryX=0;entryY=0.5;entryDx=0;entryDy=0;strokeColor=#6600CC;" edge="1" parent="1" source="64" target="68">
                    <mxGeometry relative="1" as="geometry">
                        <mxPoint x="120" y="650" as="sourcePoint"/>
                        <mxPoint x="355" y="781.5" as="targetPoint"/>
                    </mxGeometry>
                </mxCell>
                <mxCell id="344" value="new" style="edgeLabel;resizable=0;html=1;align=center;verticalAlign=middle;labelBackgroundColor=default;fontColor=#6600CC;fontSize=17;" connectable="0" vertex="1" parent="343">
                    <mxGeometry relative="1" as="geometry"/>
                </mxCell>
                <mxCell id="353" value="" style="endArrow=classic;html=1;fontColor=#FFFF00;exitX=0.75;exitY=1;exitDx=0;exitDy=0;entryX=0;entryY=0;entryDx=0;entryDy=0;strokeColor=#6600CC;" edge="1" parent="1" source="2" target="65">
                    <mxGeometry relative="1" as="geometry">
                        <mxPoint x="230" y="458.5" as="sourcePoint"/>
                        <mxPoint x="465" y="590" as="targetPoint"/>
                    </mxGeometry>
                </mxCell>
                <mxCell id="354" value="new" style="edgeLabel;resizable=0;html=1;align=center;verticalAlign=middle;labelBackgroundColor=default;fontColor=#6600CC;fontSize=17;" connectable="0" vertex="1" parent="353">
                    <mxGeometry relative="1" as="geometry"/>
                </mxCell>
                <mxCell id="365" value="" style="edgeStyle=segmentEdgeStyle;endArrow=classic;html=1;fontSize=17;fontColor=#0000CC;strokeColor=#0000CC;exitX=1;exitY=0.5;exitDx=0;exitDy=0;entryX=0.5;entryY=1;entryDx=0;entryDy=0;" edge="1" parent="1" source="3" target="82">
                    <mxGeometry width="50" height="50" relative="1" as="geometry">
                        <mxPoint x="570" y="410" as="sourcePoint"/>
                        <mxPoint x="580" y="330" as="targetPoint"/>
                    </mxGeometry>
                </mxCell>
                <mxCell id="366" value="&lt;span style=&quot;color: rgb(0 , 0 , 255) ; font-size: 18px&quot;&gt;__proto__&lt;/span&gt;" style="edgeLabel;html=1;align=center;verticalAlign=middle;resizable=0;points=[];fontSize=17;fontColor=#0000CC;" vertex="1" connectable="0" parent="365">
                    <mxGeometry x="-0.6795" relative="1" as="geometry">
                        <mxPoint x="38" as="offset"/>
                    </mxGeometry>
                </mxCell>
                <mxCell id="376" style="edgeStyle=none;html=1;exitX=0;exitY=0.5;exitDx=0;exitDy=0;entryX=0.75;entryY=0;entryDx=0;entryDy=0;fontSize=17;fontColor=#0000CC;strokeColor=#0000CC;" edge="1" parent="1" source="367" target="297">
                    <mxGeometry relative="1" as="geometry">
                        <Array as="points">
                            <mxPoint x="-363" y="236"/>
                        </Array>
                    </mxGeometry>
                </mxCell>
                <mxCell id="367" value="&lt;b style=&quot;line-height: 1.4&quot;&gt;&lt;font style=&quot;font-size: 18px&quot;&gt;普通函数&lt;br&gt;&lt;/font&gt;&lt;/b&gt;" style="rounded=1;whiteSpace=wrap;html=1;fillColor=#f0a30a;fontColor=#000000;strokeColor=#BD7000;" vertex="1" parent="1">
                    <mxGeometry x="70" y="205.5" width="120" height="60" as="geometry"/>
                </mxCell>
                <mxCell id="378" style="edgeStyle=none;html=1;exitX=0.5;exitY=1;exitDx=0;exitDy=0;entryX=0.5;entryY=0;entryDx=0;entryDy=0;fontSize=17;fontColor=#0000CC;strokeColor=#0000CC;" edge="1" parent="1" source="368" target="3">
                    <mxGeometry relative="1" as="geometry"/>
                </mxCell>
                <mxCell id="368" value="&lt;b&gt;&lt;font style=&quot;font-size: 18px&quot;&gt;普通函数的原型&lt;br&gt;&lt;/font&gt;&lt;/b&gt;" style="whiteSpace=wrap;html=1;fillColor=#f0a30a;strokeColor=#BD7000;fontColor=#000000;rounded=1;" vertex="1" parent="1">
                    <mxGeometry x="345" y="205.5" width="170" height="60" as="geometry"/>
                </mxCell>
                <mxCell id="369" value="" style="endArrow=classic;html=1;fontSize=18;strokeColor=#FF0000;entryX=0;entryY=0.25;entryDx=0;entryDy=0;exitX=1;exitY=0.25;exitDx=0;exitDy=0;" edge="1" parent="1" source="367" target="368">
                    <mxGeometry width="50" height="50" relative="1" as="geometry">
                        <mxPoint x="205" y="222" as="sourcePoint"/>
                        <mxPoint x="245" y="222" as="targetPoint"/>
                    </mxGeometry>
                </mxCell>
                <mxCell id="370" value="prototype&amp;nbsp;" style="text;html=1;align=center;verticalAlign=middle;resizable=0;points=[];autosize=1;strokeColor=none;fillColor=none;fontSize=18;fontColor=#FF0000;" vertex="1" parent="1">
                    <mxGeometry x="215" y="190" width="100" height="30" as="geometry"/>
                </mxCell>
                <mxCell id="371" value="" style="endArrow=classic;html=1;fontSize=18;strokeColor=#00CC00;exitX=0;exitY=0.75;exitDx=0;exitDy=0;entryX=1;entryY=0.75;entryDx=0;entryDy=0;" edge="1" parent="1" source="368" target="367">
                    <mxGeometry width="50" height="50" relative="1" as="geometry">
                        <mxPoint x="235" y="281.99999999999994" as="sourcePoint"/>
                        <mxPoint x="275" y="281.99999999999994" as="targetPoint"/>
                    </mxGeometry>
                </mxCell>
                <mxCell id="372" value="constructor" style="text;html=1;align=center;verticalAlign=middle;resizable=0;points=[];autosize=1;strokeColor=none;fillColor=none;fontSize=18;fontColor=#00CC00;" vertex="1" parent="1">
                    <mxGeometry x="215" y="245" width="100" height="30" as="geometry"/>
                </mxCell>
                <mxCell id="374" value="" style="endArrow=classic;html=1;fontColor=#FFFF00;exitX=0.75;exitY=0;exitDx=0;exitDy=0;entryX=0;entryY=1;entryDx=0;entryDy=0;strokeColor=#6600CC;" edge="1" parent="1" source="2" target="368">
                    <mxGeometry relative="1" as="geometry">
                        <mxPoint x="130" y="306.5" as="sourcePoint"/>
                        <mxPoint x="340" y="408" as="targetPoint"/>
                    </mxGeometry>
                </mxCell>
                <mxCell id="375" value="new" style="edgeLabel;resizable=0;html=1;align=center;verticalAlign=middle;labelBackgroundColor=default;fontColor=#6600CC;fontSize=17;" connectable="0" vertex="1" parent="374">
                    <mxGeometry relative="1" as="geometry"/>
                </mxCell>
                <mxCell id="377" value="__ptoto__" style="edgeLabel;html=1;align=center;verticalAlign=middle;resizable=0;points=[];fontSize=18;fontColor=#0000CC;" vertex="1" connectable="0" parent="1">
                    <mxGeometry x="-150.99666666666675" y="235.5" as="geometry"/>
                </mxCell>
                <mxCell id="379" value="&lt;span style=&quot;font-size: 18px&quot;&gt;__proto__&lt;/span&gt;" style="edgeLabel;resizable=0;html=1;align=center;verticalAlign=middle;fontColor=#0000FF;" connectable="0" vertex="1" parent="1">
                    <mxGeometry x="425" y="319.99666666666656" as="geometry"/>
                </mxCell>
                <mxCell id="383" value="new" style="edgeLabel;resizable=0;html=1;align=center;verticalAlign=middle;labelBackgroundColor=default;fontColor=#6600CC;fontSize=17;" connectable="0" vertex="1" parent="1">
                    <mxGeometry x="20" y="340" as="geometry"/>
                </mxCell>
            </root>
        </mxGraphModel>
    </diagram>
</mxfile>